<svg width="5341" height="1492" viewBox="0 0 5341 1492" fill="none" xmlns="http://www.w3.org/2000/svg">
<path d="M800.954 64V128H835.957H870.96V321.333V514.667H615.643H360.326V441.467V368.267L367.601 364.267C377.347 358.933 388.466 347.067 393.27 337.067C399.036 325.067 400.408 313.733 399.859 281.6C399.447 256.667 399.173 253.2 396.977 251.067C394.643 248.8 388.603 248.667 299.38 248.267C204.665 248 204.254 248 200.685 250.8L196.978 253.467V284.533C196.978 301.6 197.665 318.933 198.351 322.8C201.645 340.267 215.647 358.133 231.707 365.733L239.531 369.467V441.867V514.4L206.313 515.067C168.564 515.733 163.211 516.533 142.758 526C113.657 539.2 94.4398 560.8 87.3019 588.133L84.9684 597.333L80.5758 591.333C71.928 579.467 62.0448 576.133 35.0031 576C18.9429 576 17.1584 577.2 17.1584 589.067C17.0211 597.6 16.8839 598.133 12.6286 600.667C10.0205 602.267 6.58882 606.533 4.11801 611.2L0 619.2V651.333V683.467L4.11801 691.467C6.58882 696.133 10.0205 700.4 12.6286 702C16.6093 704.4 17.0211 705.333 17.1584 711.067C17.1584 722.667 17.2957 722.667 38.8466 722.667C63.2802 722.667 66.7118 721.733 76.5951 711.867L84.4193 704.133V851.067C84.4193 985.733 84.8311 1006.93 87.851 1016.13C88.6746 1018.53 87.4392 1018.67 46.8081 1018.67H4.80435V1098V1177.33H91.1454H177.486L171.309 1186.27C157.857 1205.73 147.699 1229.6 141.797 1254.8C139.052 1266.67 138.64 1272.27 138.64 1294.67C138.64 1317.07 139.052 1322.67 141.797 1334.53C150.719 1373.07 168.839 1405.73 196.292 1432.67C265.2 1500.53 371.994 1511.2 453.942 1458.4C470.552 1447.6 498.417 1420.8 508.849 1405.33C523.4 1383.73 534.793 1358.27 539.185 1337.07L540.97 1328.67L615.78 1328.27L690.454 1328L692.101 1336.27C698.553 1368.27 718.319 1404.4 743.713 1430.27C773.363 1460.4 809.464 1479.73 851.468 1488.27C863.548 1490.67 870.548 1491.2 890.864 1491.2C918.18 1491.2 933.142 1488.93 956.752 1481.07C1022.09 1459.73 1075.21 1401.47 1089.21 1336.27L1091 1328H1165.4H1239.93L1242.27 1338.27C1250.23 1372.93 1269.17 1406.4 1295.8 1432.67C1364.57 1500.53 1471.5 1511.2 1553.45 1458.4C1570.06 1447.73 1597.93 1420.8 1608.36 1405.33C1624.28 1381.87 1635.68 1354.8 1640.48 1329.33C1643.77 1312 1643.77 1277.33 1640.48 1260C1635.95 1235.47 1624.69 1208 1610.97 1187.6L1603.97 1177.33H1656.13H1708.29V1098C1708.29 1019.6 1708.29 1018.67 1705.54 1018.67C1702.8 1018.67 1702.8 1017.73 1702.8 573.333V128H1729.57H1756.33V64V-4.52519e-05H1278.64H800.954V64ZM1494.15 344V481.333L1266.7 481.067L1039.11 480.667L1038.7 343.6L1038.43 206.667H1266.29H1494.15V344ZM725.869 1178.93C725.32 1179.87 722.574 1184 719.829 1188C699.788 1217.33 687.022 1259.47 687.022 1296.53V1303.33H615.78H544.676L543.852 1287.2C541.931 1250.53 530.675 1216.27 511.183 1187.2L504.457 1177.33H615.78C704.455 1177.33 726.83 1177.73 725.869 1178.93ZM1270.82 1186.27C1250.92 1215.2 1239.52 1249.2 1237.88 1284.67L1237.05 1303.33L1165.54 1303.07L1094.02 1302.67L1093.06 1285.07C1092.1 1264.8 1089.49 1250.4 1083.59 1233.07C1078.92 1219.07 1068.9 1198.93 1060.66 1186.93C1057.51 1182.27 1054.9 1178.27 1054.9 1177.87C1054.9 1177.6 1104.86 1177.33 1165.95 1177.33H1277L1270.82 1186.27Z" fill="black"/>
<rect x="1642" y="829" width="279" height="128" fill="black"/>
<rect x="1833" y="147" width="1687" height="151" fill="black"/>
<path d="M1910 272H2189V1171H1910V272Z" fill="black"/>
<rect x="1910" y="746" width="1560" height="441" fill="black"/>
<rect x="3186" y="173" width="284" height="963" fill="black"/>
<rect x="2633" y="223" width="104" height="606" fill="black"/>
<ellipse cx="2102" cy="1287.5" rx="153" ry="151.5" fill="black"/>
<ellipse cx="2523" cy="1287.5" rx="153" ry="151.5" fill="black"/>
<ellipse cx="2891" cy="1287.5" rx="153" ry="151.5" fill="black"/>
<ellipse cx="3302" cy="1287.5" rx="153" ry="151.5" fill="black"/>
<rect x="3463" y="829" width="279" height="128" fill="black"/>
<rect x="3654" y="147" width="1687" height="151" fill="black"/>
<path d="M3731 272H4010V1171H3731V272Z" fill="black"/>
<rect x="3731" y="746" width="1560" height="441" fill="black"/>
<rect x="5007" y="173" width="284" height="963" fill="black"/>
<rect x="4454" y="223" width="104" height="606" fill="black"/>
<ellipse cx="3923" cy="1287.5" rx="153" ry="151.5" fill="black"/>
<ellipse cx="4344" cy="1287.5" rx="153" ry="151.5" fill="black"/>
<ellipse cx="4712" cy="1287.5" rx="153" ry="151.5" fill="black"/>
<ellipse cx="5123" cy="1287.5" rx="153" ry="151.5" fill="black"/>
</svg>
